<?xml version="1.0" standalone="no"?>
<!DOCTYPE svg PUBLIC "-//W3C//DTD SVG 20010904//EN"
 "http://www.w3.org/TR/2001/REC-SVG-20010904/DTD/svg10.dtd">
<svg version="1.0" xmlns="http://www.w3.org/2000/svg"
 width="387.000000pt" height="130.000000pt" viewBox="0 0 387.000000 130.000000"
 preserveAspectRatio="xMidYMid meet">
<metadata>
Created by potrace 1.16, written by Peter Selinger 2001-2019
</metadata>
<g transform="translate(0.000000,130.000000) scale(0.100000,-0.100000)"
fill="#000000" stroke="none">
<path d="M233 1285 c-22 -9 -34 -23 -38 -42 -4 -15 -8 -37 -10 -47 -2 -11 0
-25 5 -31 5 -6 11 -22 13 -36 3 -17 12 -25 33 -29 33 -6 32 3 13 -143 l-13
-97 -45 -36 c-42 -32 -50 -35 -101 -30 -30 2 -63 0 -72 -5 -15 -8 -15 -12 -3
-35 19 -38 71 -67 95 -54 11 6 17 16 14 24 -3 8 7 18 28 25 18 7 47 19 65 26
29 13 31 12 37 -8 3 -12 6 -31 6 -42 0 -11 7 -33 15 -49 8 -15 12 -33 8 -39
-3 -5 -7 -26 -9 -46 -5 -64 -22 -147 -38 -186 -9 -20 -16 -48 -16 -62 0 -13
-9 -41 -19 -61 -10 -20 -24 -57 -31 -82 -7 -25 -26 -59 -43 -77 -28 -28 -36
-31 -71 -26 -34 5 -39 4 -33 -11 4 -10 7 -19 7 -22 0 -8 76 -42 110 -49 19 -3
42 -9 51 -11 12 -3 24 11 44 53 62 129 157 318 164 326 4 4 35 -21 68 -55 55
-58 61 -68 67 -121 4 -31 14 -63 22 -71 8 -8 14 -17 14 -20 0 -14 -34 -36 -56
-36 -15 0 -24 -6 -24 -15 0 -11 11 -15 43 -15 37 0 64 5 153 25 19 4 21 9 14
39 -4 19 -15 44 -24 57 -9 13 -16 30 -16 39 -1 8 -21 49 -45 90 -60 101 -87
160 -83 183 2 15 40 -17 162 -137 87 -86 186 -178 219 -204 34 -26 76 -62 93
-79 18 -18 37 -33 42 -33 10 0 102 115 102 128 0 5 11 19 25 32 14 13 25 28
25 34 -1 22 -154 189 -199 216 -25 16 -64 42 -86 59 -22 16 -57 37 -77 47 -37
17 -38 17 -61 -4 -13 -12 -27 -22 -33 -22 -5 0 -29 -23 -54 -51 l-45 -51 -65
58 c-76 67 -86 86 -69 136 11 34 9 76 -5 108 -5 13 5 15 64 15 99 0 105 8 104
138 0 88 -24 270 -40 312 -8 21 -61 38 -99 32 -56 -9 -126 -45 -132 -67 -11
-43 -47 2 -58 73 -3 21 -16 48 -28 60 l-22 22 -3 -38 c-2 -21 2 -44 8 -52 9
-11 7 -12 -9 -8 -24 6 -29 -15 -8 -36 10 -10 9 -11 -5 -6 -19 8 -24 40 -8 50
12 7 14 85 3 85 -5 -1 -22 -7 -40 -15z"/>
<path d="M1477 1163 c-16 -16 -40 -18 -205 -20 -103 -2 -223 -6 -266 -10 -101
-10 -110 -22 -65 -86 18 -26 36 -47 41 -47 14 0 9 47 -7 60 -29 24 -15 31 55
29 39 -1 70 -3 70 -5 0 -1 -30 -47 -67 -101 -72 -106 -123 -206 -123 -239 0
-28 25 -48 47 -39 12 5 14 9 6 12 -7 3 -13 13 -13 23 0 34 212 340 236 340 22
0 17 -12 -28 -76 -46 -65 -98 -170 -98 -196 0 -23 28 -48 46 -41 11 4 12 9 3
19 -14 18 -3 53 30 87 30 33 90 72 97 64 3 -3 -4 -23 -15 -46 -26 -51 -27 -85
-1 -111 26 -26 32 -25 68 5 l30 25 16 -25 c20 -31 63 -33 121 -6 51 23 105 68
105 88 0 11 -9 8 -31 -12 -43 -36 -103 -65 -134 -65 -20 0 -25 5 -25 25 0 17
6 25 17 25 33 0 100 40 112 67 12 25 10 30 -14 50 l-27 23 -41 -22 c-22 -13
-54 -43 -71 -68 -38 -55 -81 -100 -95 -100 -20 0 -11 34 19 80 16 25 30 57 30
73 0 23 -4 27 -27 27 -16 0 -43 -9 -60 -20 -18 -11 -33 -18 -33 -15 0 2 18 30
40 61 22 32 40 62 40 69 0 7 38 15 100 21 110 11 145 30 138 73 -3 21 -4 21
-21 4z"/>
<path d="M2265 1140 c-3 -5 -3 -24 0 -42 5 -28 -2 -46 -50 -123 -64 -101 -147
-216 -172 -236 -28 -24 -11 67 32 162 48 109 51 125 30 149 -26 29 -45 25 -45
-8 0 -42 -154 -282 -181 -282 -18 0 -8 52 32 162 56 152 58 172 25 194 -23 14
-33 15 -66 5 -75 -22 -132 -92 -146 -179 -5 -35 -3 -44 20 -67 15 -15 31 -23
38 -19 9 6 9 9 0 12 -26 8 -7 72 48 161 27 44 56 69 67 58 2 -2 -15 -50 -38
-107 -36 -90 -41 -110 -37 -163 3 -43 10 -63 23 -73 29 -21 41 -17 90 29 l45
44 0 -39 c0 -36 26 -78 49 -78 27 0 162 149 250 276 l46 67 100 -2 c64 -1 161
8 269 24 189 28 263 30 319 11 32 -12 37 -12 37 1 0 24 -64 43 -145 43 -41 0
-133 -12 -203 -26 -208 -42 -372 -45 -358 -7 10 24 -21 63 -49 63 -13 0 -27
-4 -30 -10z"/>
<path d="M3086 1089 c-15 -12 -53 -60 -85 -108 -60 -89 -156 -201 -172 -201
-5 0 -9 9 -9 20 0 49 103 158 121 129 6 -11 9 -9 15 5 5 13 1 23 -11 32 -35
26 -104 -7 -140 -66 -37 -60 -93 -116 -105 -104 -7 7 1 26 30 66 76 107 33
142 -76 63 -19 -14 -21 -14 -20 6 1 12 -9 28 -21 36 -21 14 -23 14 -29 -3 -23
-72 -114 -187 -133 -169 -8 8 -5 23 10 53 22 45 20 72 -7 72 -8 0 -46 -33 -84
-72 -37 -40 -71 -70 -75 -66 -12 12 3 54 31 88 42 50 144 92 144 59 0 -5 5 -7
10 -4 14 9 12 21 -7 40 -13 13 -27 16 -62 11 -111 -15 -194 -125 -145 -194 23
-33 52 -27 96 20 31 33 38 38 38 21 0 -20 38 -63 57 -63 5 0 18 9 28 20 21 23
35 26 35 6 0 -16 27 -29 41 -20 6 3 7 15 3 26 -5 16 7 33 57 79 68 64 105 80
70 30 -33 -46 -42 -78 -29 -106 18 -39 45 -41 82 -6 l31 30 17 -29 c25 -44 58
-40 102 12 30 35 36 38 36 21 0 -22 43 -63 65 -63 6 0 22 11 35 25 l23 24 20
-26 c18 -22 26 -25 63 -20 58 6 129 54 184 122 48 61 68 60 26 -2 -29 -43 -33
-84 -10 -107 23 -24 44 -20 81 16 23 22 33 27 33 17 0 -9 9 -24 20 -34 46 -42
162 11 239 111 48 62 69 59 27 -3 -28 -40 -32 -72 -16 -104 18 -33 54 -23 104
31 61 65 60 88 -2 27 -72 -71 -100 -59 -42 17 34 45 38 81 12 95 -14 7 -18 18
-14 40 3 22 0 31 -10 31 -22 0 -38 -21 -38 -50 0 -56 -144 -180 -209 -180 -48
0 -35 43 18 59 81 24 117 82 70 114 -38 27 -73 2 -183 -127 -36 -43 -66 -59
-66 -36 0 6 16 33 35 61 36 53 36 79 0 93 -13 5 -14 10 -5 27 9 16 9 24 1 32
-18 18 -45 -5 -51 -41 -11 -68 -140 -181 -207 -182 -50 0 -38 42 16 59 82 24
117 82 70 115 -37 25 -98 -14 -155 -99 -39 -60 -70 -83 -86 -67 -15 15 34 101
96 164 60 62 91 112 82 134 -8 20 -39 17 -70 -7z"/>
<path d="M2052 655 c2 -1 23 -6 47 -9 24 -3 46 -8 48 -10 3 -2 -31 -7 -74 -10
-71 -6 -132 -13 -292 -32 -30 -3 -48 -10 -42 -14 7 -4 -22 -15 -68 -25 -91
-21 -109 -36 -28 -24 127 19 361 32 365 20 2 -6 8 -9 13 -5 5 3 9 1 9 -3 0 -5
-44 -9 -97 -10 -54 0 -125 -8 -158 -16 -33 -8 -84 -18 -114 -22 -100 -12 -356
-94 -340 -109 2 -2 29 0 59 5 422 68 377 64 762 62 197 -1 372 -6 390 -11 18
-5 45 -5 61 -1 16 4 25 4 21 -2 -3 -5 4 -9 16 -9 13 0 19 4 14 11 -5 9 9 10
50 7 32 -3 61 -9 64 -15 4 -6 71 -14 152 -18 183 -10 220 -9 232 3 7 7 27 5
60 -5 64 -18 78 -7 43 35 -18 21 -22 32 -13 35 7 3 3 6 -8 6 -12 1 -28 9 -35
18 -12 15 -12 16 6 9 34 -14 68 -19 62 -10 -3 5 15 7 39 5 24 -1 44 1 44 5 -1
5 -18 20 -38 34 -32 21 -48 24 -122 24 -54 1 -90 5 -98 13 -9 8 -28 10 -59 6
-34 -4 -44 -3 -39 5 5 9 -8 12 -46 12 -51 1 -52 1 -28 15 14 8 34 14 45 14 16
-1 15 -2 -5 -9 -17 -6 -3 -8 45 -7 57 0 62 1 25 6 l-45 5 50 6 c28 4 -69 7
-215 8 -146 1 -377 4 -513 6 -137 2 -247 3 -245 1z"/>
</g>
</svg>
